<?xml version="1.0" standalone="no"?>
<!DOCTYPE svg PUBLIC "-//W3C//DTD SVG 20010904//EN"
 "http://www.w3.org/TR/2001/REC-SVG-20010904/DTD/svg10.dtd">
<svg version="1.0" xmlns="http://www.w3.org/2000/svg"
 width="512.000000pt" height="512.000000pt" viewBox="0 0 512.000000 512.000000"
 preserveAspectRatio="xMidYMid meet">
<metadata>
Created by potrace 1.14, written by Peter Selinger 2001-2017
</metadata>
<g transform="translate(0.000000,512.000000) scale(0.100000,-0.100000)"
fill="#000000" stroke="none">
<path d="M2044 4993 c-10 -10 -195 -13 -836 -13 -619 0 -833 -4 -864 -13 -93
-28 -176 -105 -210 -198 -15 -40 -17 -194 -18 -1814 -1 -974 1 -1781 4 -1795
4 -14 20 -34 37 -45 46 -29 47 -50 7 -74 -19 -12 -38 -31 -43 -43 -14 -38 15
-96 51 -102 15 -2 18 -8 18 -36 0 -11 -6 -20 -13 -20 -8 0 -24 -9 -37 -20 -23
-20 -24 -24 -25 -211 -1 -220 10 -288 55 -354 37 -54 108 -108 165 -126 56
-18 3067 -20 3101 -3 13 7 24 10 27 8 8 -8 142 -17 237 -17 173 2 365 47 530
125 289 138 530 390 646 677 14 36 30 75 35 86 13 30 48 178 56 232 9 64 9
305 1 368 -11 76 -55 239 -84 308 -139 330 -403 596 -719 721 -138 55 -240 80
-367 92 -75 6 -76 7 -80 36 -3 16 -2 31 2 33 4 3 45 -2 91 -10 218 -39 512
-41 719 -6 143 25 399 97 457 130 17 9 18 72 18 1050 0 573 -2 1041 -5 1042
-3 1 -666 2 -1474 3 -1157 1 -1472 -2 -1482 -11z"/>
</g>
</svg>
